<svg xmlns="http://www.w3.org/2000/svg" width="48" height="48" viewBox="0 0 100 100">
  <rect width="100" height="100" rx="20.83" fill="#0a0a0a"/>
  <circle cx="50" cy="50" r="27" fill="rgb(212,101,74)"/>
  <g fill="#0a0a0a">
    <polygon points="50.000,44.060 55.649,48.164 53.491,54.806 46.509,54.806 44.351,48.164"/>
    <polygon points="50.000,29.480 54.109,32.465 52.539,37.295 47.461,37.295 45.891,32.465"/>
    <polygon points="65.407,40.674 69.516,43.659 67.946,48.489 62.868,48.489 61.298,43.659"/>
    <polygon points="59.522,58.786 63.631,61.771 62.061,66.601 56.983,66.601 55.413,61.771"/>
    <polygon points="40.478,58.786 44.587,61.771 43.017,66.601 37.939,66.601 36.369,61.771"/>
    <polygon points="34.593,40.674 38.702,43.659 37.132,48.489 32.054,48.489 30.484,43.659"/>
  </g>
</svg>
